#!OML:ASF E:\Style4\Style4.ASF
:FULLY-SPECIFIED
:DEGREES
3879
root 0.266835 18.2277 -0.895903 7.19622 -16.5383 2.81326
lowerback 11.1282 1.28695 -2.23922
upperback 2.47154 1.37803 -1.23251
thorax -3.67821 0.691379 -0.214685
lowerneck 1.79639 -7.03752 -4.73713
upperneck 3.19561 -9.55564 4.99364
head 1.20324 -4.79016 2.29928
rclavicle -4.7571e-014 -1.35605e-014
rhumerus 75.5215 -29.2357 -40.936
rradius 52.5821
rwrist -10.9247
rhand 21.1496 5.80415
rfingers 7.12502
rthumb 45.6045 -17.4533
lclavicle -4.7571e-014 -1.35605e-014
lhumerus 75.7975 26.2082 33.6055
lradius 53.6476
lwrist 26.6155
lhand 20.2435 35.13
lfingers 7.12502
lthumb 44.7618 58.7228
rfemur -19.0544 8.83994 13.7619
rtibia 21.1343
rfoot -8.96534 -10.5366
rtoes -16.1191
lfemur -13.8089 5.81834 -22.6094
ltibia 20.8151
lfoot -16.4352 18.9879
ltoes -12.1099
3880
root 0.278019 18.2128 -0.90813 7.1845 -16.6673 2.94594
lowerback 11.1971 1.31286 -2.33303
upperback 2.49383 1.39711 -1.27956
thorax -3.69422 0.70126 -0.214873
lowerneck 1.68918 -7.02415 -4.758
upperneck 3.18037 -9.53379 4.99788
head 1.21706 -4.77814 2.30074
rclavicle -1.93233e-014 8.21617e-015
rhumerus 75.4849 -28.9684 -41.0221
rradius 52.5566
rwrist -10.8855
rhand 20.9728 5.75814
rfingers 7.12502
rthumb 45.4402 -17.5659
lclavicle -1.93233e-014 8.21617e-015
lhumerus 75.8571 26.0481 33.7823
lradius 53.6547
lwrist 26.2992
lhand 19.9354 34.8411
lfingers 7.12502
lthumb 44.4749 58.5445
rfemur -19.5687 8.72618 13.6
rtibia 21.8634
rfoot -9.23953 -10.3783
rtoes -15.9444
lfemur -14.2143 5.94703 -22.7977
ltibia 21.4052
lfoot -16.5823 18.9426
ltoes -12.2604
3881
root 0.287983 18.1957 -0.92282 7.10408 -16.8438 3.01021
lowerback 11.3623 1.37574 -2.3719
upperback 2.54414 1.46838 -1.32096
thorax -3.73358 0.736269 -0.249503
lowerneck 1.67123 -7.0501 -4.75381
upperneck 3.04455 -9.56406 5.0183
head 1.1793 -4.79324 2.30779
rclavicle -3.89131e-014 3.6286e-015
rhumerus 75.4629 -28.74 -41.1797
rradius 52.5082
rwrist -10.7127
rhand 20.8633 5.74942
rfingers 7.12502
rthumb 45.3385 -17.6156
lclavicle -3.89131e-014 3.6286e-015
lhumerus 75.9689 25.8236 34.0918
lradius 53.7855
lwrist 25.9501
lhand 19.7117 34.6292
lfingers 7.12502
lthumb 44.2664 58.412
rfemur -19.9951 8.72384 13.5288
rtibia 22.5526
rfoot -9.42842 -10.2846
rtoes -15.9279
lfemur -14.5594 6.08852 -22.8953
ltibia 22.0506
lfoot -16.7348 18.9323
ltoes -12.8011
3882
root 0.296092 18.1803 -0.936085 7.01797 -17.0203 2.99918
lowerback 11.5104 1.42866 -2.35368
upperback 2.62711 1.53472 -1.35229
thorax -3.72806 0.767872 -0.304299
lowerneck 1.65421 -7.03455 -4.72236
upperneck 2.88339 -9.53888 5.0708
head 1.13073 -4.78035 2.32222
rclavicle 7.71844e-015 -5.92316e-015
rhumerus 75.473 -28.5271 -41.4258
rradius 52.4904
rwrist -10.3473
rhand 20.8943 5.88864
rfingers 7.12502
rthumb 45.3672 -17.4648
lclavicle 7.71844e-015 -5.92316e-015
lhumerus 76.1202 25.6052 34.5208
lradius 54.0353
lwrist 25.5497
lhand 19.5412 34.6308
lfingers 7.12502
lthumb 44.1074 58.4735
rfemur -20.4 8.73625 13.5414
rtibia 23.2426
rfoot -9.59966 -10.1928
rtoes -16.0865
lfemur -14.9096 6.18042 -22.8914
ltibia 22.7555
lfoot -16.963 18.9475
ltoes -12.963
3883
root 0.303537 18.1659 -0.947556 6.92724 -17.145 3.05881
lowerback 11.6113 1.45218 -2.4046
upperback 2.70581 1.55516 -1.39538
thorax -3.70175 0.77731 -0.324772
lowerneck 1.67127 -7.00859 -4.72892
upperneck 2.72986 -9.50318 5.1814
head 1.08365 -4.76279 2.36362
rclavicle 2.6575e-014 1.40516e-014
rhumerus 75.4219 -28.2974 -41.5661
rradius 52.5755
rwrist -10.0365
rhand 20.9458 5.90011
rfingers 7.12502
rthumb 45.4151 -17.434
lclavicle 2.6575e-014 1.40516e-014
lhumerus 76.1945 25.4354 34.8716
lradius 54.2849
lwrist 25.1354
lhand 19.5957 34.6041
lfingers 7.12502
lthumb 44.1582 58.4277
rfemur -20.7913 8.68917 13.4814
rtibia 23.9526
rfoot -9.85711 -10.0736
rtoes -16.0694
lfemur -15.2916 6.27996 -22.9525
ltibia 23.4959
lfoot -17.2679 18.8212
ltoes -12.2246
3884
root 0.310399 18.1453 -0.958228 6.83596 -17.2736 3.10717
lowerback 11.716 1.48692 -2.45768
upperback 2.78385 1.59026 -1.43005
thorax -3.67863 0.794016 -0.33758
lowerneck 1.59564 -6.99449 -4.68771
upperneck 2.67819 -9.48017 5.20065
head 1.0778 -4.75001 2.36111
rclavicle 2.22328e-014 -5.56597e-015
rhumerus 75.2279 -28.0869 -41.5708
rradius 52.7655
rwrist -9.86038
rhand 20.8618 5.97349
rfingers 7.12502
rthumb 45.337 -17.3921
lclavicle 2.22328e-014 -5.56597e-015
lhumerus 76.1642 25.2679 35.0812
lradius 54.5677
lwrist 24.8933
lhand 19.5258 34.5103
lfingers 7.12502
lthumb 44.0931 58.3583
rfemur -21.1934 8.63781 13.4379
rtibia 24.7118
rfoot -10.0914 -9.9792
rtoes -16.4121
lfemur -15.6409 6.46685 -23.018
ltibia 24.2269
lfoot -17.6068 18.625
ltoes -11.496
3885
root 0.316575 18.1172 -0.970379 6.77452 -17.4392 3.01215
lowerback 11.8655 1.52947 -2.39811
upperback 2.84348 1.6493 -1.41524
thorax -3.698 0.822154 -0.367358
lowerneck 1.49342 -6.9626 -4.68198
upperneck 2.6726 -9.43265 5.15909
head 1.08832 -4.72514 2.34356
rclavicle -1.95803e-014 7.29291e-015
rhumerus 75.0446 -27.8509 -41.5678
rradius 52.9601
rwrist -9.77133
rhand 20.7503 5.91973
rfingers 7.12502
rthumb 45.2334 -17.4873
lclavicle -1.95803e-014 7.29291e-015
lhumerus 76.1098 25.092 35.2849
lradius 54.8284
lwrist 24.5778
lhand 19.5483 34.3376
lfingers 7.12502
lthumb 44.114 58.1778
rfemur -21.6653 8.73685 13.5368
rtibia 25.565
rfoot -10.3752 -9.98064
rtoes -16.4894
lfemur -15.9373 6.77237 -22.9574
ltibia 24.8953
lfoot -17.8465 18.4552
ltoes -11.5231
